<mxfile host="www.draw.io" modified="2020-02-17T13:43:45.921Z" agent="Mozilla/5.0 (Windows NT 10.0; Win64; x64) AppleWebKit/537.36 (KHTML, like Gecko) Chrome/80.0.3987.106 Safari/537.36" etag="AuM-M-QG31GpsK1oH0lq" version="12.7.0" type="github">
  <diagram id="C5RBs43oDa-KdzZeNtuy" name="Page-1">
    <mxGraphModel dx="2073" dy="1296" grid="1" gridSize="10" guides="1" tooltips="1" connect="1" arrows="1" fold="1" page="0" pageScale="1" pageWidth="827" pageHeight="1169" math="0" shadow="1">
      <root>
        <mxCell id="WIyWlLk6GJQsqaUBKTNV-0"/>
        <mxCell id="WIyWlLk6GJQsqaUBKTNV-1" parent="WIyWlLk6GJQsqaUBKTNV-0"/>
        <mxCell id="aQOUqq8OAmi28eRQVCnU-102" value="EVENTO" style="rounded=0;whiteSpace=wrap;html=1;" vertex="1" parent="WIyWlLk6GJQsqaUBKTNV-1">
          <mxGeometry x="450" y="340" width="160" height="80" as="geometry"/>
        </mxCell>
        <mxCell id="aQOUqq8OAmi28eRQVCnU-103" value="CONTIENE" style="rhombus;whiteSpace=wrap;html=1;" vertex="1" parent="WIyWlLk6GJQsqaUBKTNV-1">
          <mxGeometry x="490" y="180" width="80" height="80" as="geometry"/>
        </mxCell>
        <mxCell id="aQOUqq8OAmi28eRQVCnU-104" value="AGENDA" style="rounded=0;whiteSpace=wrap;html=1;" vertex="1" parent="WIyWlLk6GJQsqaUBKTNV-1">
          <mxGeometry x="450" y="20" width="160" height="80" as="geometry"/>
        </mxCell>
        <mxCell id="aQOUqq8OAmi28eRQVCnU-105" value="CONTATTO" style="rounded=0;whiteSpace=wrap;html=1;" vertex="1" parent="WIyWlLk6GJQsqaUBKTNV-1">
          <mxGeometry x="50" y="20" width="160" height="80" as="geometry"/>
        </mxCell>
        <mxCell id="aQOUqq8OAmi28eRQVCnU-106" value="POSSIEDE" style="rhombus;whiteSpace=wrap;html=1;" vertex="1" parent="WIyWlLk6GJQsqaUBKTNV-1">
          <mxGeometry x="290" y="20" width="80" height="80" as="geometry"/>
        </mxCell>
        <mxCell id="aQOUqq8OAmi28eRQVCnU-107" value="" style="endArrow=none;html=1;rounded=0;exitX=1;exitY=0.5;exitDx=0;exitDy=0;entryX=0;entryY=0.5;entryDx=0;entryDy=0;" edge="1" parent="WIyWlLk6GJQsqaUBKTNV-1" source="aQOUqq8OAmi28eRQVCnU-105" target="aQOUqq8OAmi28eRQVCnU-106">
          <mxGeometry relative="1" as="geometry">
            <mxPoint x="220" y="60" as="sourcePoint"/>
            <mxPoint x="300" y="60" as="targetPoint"/>
          </mxGeometry>
        </mxCell>
        <mxCell id="aQOUqq8OAmi28eRQVCnU-108" value="(1,n)" style="resizable=0;html=1;align=center;verticalAlign=bottom;fontSize=18;" connectable="0" vertex="1" parent="aQOUqq8OAmi28eRQVCnU-107">
          <mxGeometry x="-1" relative="1" as="geometry">
            <mxPoint x="40" as="offset"/>
          </mxGeometry>
        </mxCell>
        <mxCell id="aQOUqq8OAmi28eRQVCnU-109" value="" style="endArrow=none;html=1;rounded=0;exitX=1;exitY=0.5;exitDx=0;exitDy=0;entryX=0;entryY=0.5;entryDx=0;entryDy=0;" edge="1" parent="WIyWlLk6GJQsqaUBKTNV-1">
          <mxGeometry relative="1" as="geometry">
            <mxPoint x="370" y="60" as="sourcePoint"/>
            <mxPoint x="450" y="60" as="targetPoint"/>
          </mxGeometry>
        </mxCell>
        <mxCell id="aQOUqq8OAmi28eRQVCnU-110" value="(1,1)" style="resizable=0;html=1;align=center;verticalAlign=bottom;fontSize=18;" connectable="0" vertex="1" parent="aQOUqq8OAmi28eRQVCnU-109">
          <mxGeometry x="-1" relative="1" as="geometry">
            <mxPoint x="40" as="offset"/>
          </mxGeometry>
        </mxCell>
        <mxCell id="aQOUqq8OAmi28eRQVCnU-111" value="" style="endArrow=none;html=1;rounded=0;exitX=0.5;exitY=1;exitDx=0;exitDy=0;" edge="1" parent="WIyWlLk6GJQsqaUBKTNV-1" source="aQOUqq8OAmi28eRQVCnU-104">
          <mxGeometry relative="1" as="geometry">
            <mxPoint x="529.41" y="110" as="sourcePoint"/>
            <mxPoint x="529.4099999999999" y="180" as="targetPoint"/>
          </mxGeometry>
        </mxCell>
        <mxCell id="aQOUqq8OAmi28eRQVCnU-112" value="(0,n)" style="resizable=0;html=1;align=center;verticalAlign=bottom;fontSize=18;" connectable="0" vertex="1" parent="aQOUqq8OAmi28eRQVCnU-111">
          <mxGeometry x="-1" relative="1" as="geometry">
            <mxPoint x="20" y="40" as="offset"/>
          </mxGeometry>
        </mxCell>
        <mxCell id="aQOUqq8OAmi28eRQVCnU-113" value="" style="endArrow=none;html=1;rounded=0;exitX=0.5;exitY=1;exitDx=0;exitDy=0;entryX=0.5;entryY=0;entryDx=0;entryDy=0;" edge="1" parent="WIyWlLk6GJQsqaUBKTNV-1" source="aQOUqq8OAmi28eRQVCnU-103" target="aQOUqq8OAmi28eRQVCnU-102">
          <mxGeometry relative="1" as="geometry">
            <mxPoint x="520" y="270" as="sourcePoint"/>
            <mxPoint x="520" y="340" as="targetPoint"/>
          </mxGeometry>
        </mxCell>
        <mxCell id="aQOUqq8OAmi28eRQVCnU-114" value="(1,1)" style="resizable=0;html=1;align=center;verticalAlign=bottom;fontSize=18;" connectable="0" vertex="1" parent="aQOUqq8OAmi28eRQVCnU-113">
          <mxGeometry x="-1" relative="1" as="geometry">
            <mxPoint x="20" y="50" as="offset"/>
          </mxGeometry>
        </mxCell>
        <mxCell id="aQOUqq8OAmi28eRQVCnU-115" value="" style="endArrow=none;html=1;rounded=0;entryX=0;entryY=0.5;entryDx=0;entryDy=0;exitX=1;exitY=0.5;exitDx=0;exitDy=0;" edge="1" parent="WIyWlLk6GJQsqaUBKTNV-1" source="aQOUqq8OAmi28eRQVCnU-117" target="aQOUqq8OAmi28eRQVCnU-102">
          <mxGeometry relative="1" as="geometry">
            <mxPoint x="130" y="540" as="sourcePoint"/>
            <mxPoint x="250" y="540" as="targetPoint"/>
            <Array as="points">
              <mxPoint x="170" y="380"/>
              <mxPoint x="350" y="380"/>
            </Array>
          </mxGeometry>
        </mxCell>
        <mxCell id="aQOUqq8OAmi28eRQVCnU-116" value="(0,n)" style="resizable=0;html=1;align=center;verticalAlign=bottom;fontSize=18;" connectable="0" vertex="1" parent="aQOUqq8OAmi28eRQVCnU-115">
          <mxGeometry x="-1" relative="1" as="geometry">
            <mxPoint x="250" as="offset"/>
          </mxGeometry>
        </mxCell>
        <mxCell id="aQOUqq8OAmi28eRQVCnU-117" value="PARTECIPA" style="rhombus;whiteSpace=wrap;html=1;" vertex="1" parent="WIyWlLk6GJQsqaUBKTNV-1">
          <mxGeometry x="90" y="340" width="80" height="80" as="geometry"/>
        </mxCell>
        <mxCell id="aQOUqq8OAmi28eRQVCnU-118" value="" style="endArrow=none;html=1;rounded=0;entryX=0.5;entryY=0;entryDx=0;entryDy=0;exitX=0.5;exitY=1;exitDx=0;exitDy=0;" edge="1" parent="WIyWlLk6GJQsqaUBKTNV-1" source="aQOUqq8OAmi28eRQVCnU-105" target="aQOUqq8OAmi28eRQVCnU-117">
          <mxGeometry relative="1" as="geometry">
            <mxPoint x="130" y="100" as="sourcePoint"/>
            <mxPoint x="290" y="540" as="targetPoint"/>
            <Array as="points"/>
          </mxGeometry>
        </mxCell>
        <mxCell id="aQOUqq8OAmi28eRQVCnU-119" value="(0,n)" style="resizable=0;html=1;align=center;verticalAlign=bottom;fontSize=18;" connectable="0" vertex="1" parent="aQOUqq8OAmi28eRQVCnU-118">
          <mxGeometry x="-1" relative="1" as="geometry">
            <mxPoint x="20" y="30" as="offset"/>
          </mxGeometry>
        </mxCell>
        <mxCell id="aQOUqq8OAmi28eRQVCnU-120" value="" style="group" vertex="1" connectable="0" parent="WIyWlLk6GJQsqaUBKTNV-1">
          <mxGeometry x="-30" y="50" width="80" height="20" as="geometry"/>
        </mxCell>
        <mxCell id="aQOUqq8OAmi28eRQVCnU-121" value="" style="endArrow=none;html=1;startArrow=oval;startFill=0;" edge="1" parent="aQOUqq8OAmi28eRQVCnU-120">
          <mxGeometry width="50" height="50" relative="1" as="geometry">
            <mxPoint y="19.409999999999968" as="sourcePoint"/>
            <mxPoint x="80" y="19.409999999999968" as="targetPoint"/>
          </mxGeometry>
        </mxCell>
        <mxCell id="aQOUqq8OAmi28eRQVCnU-122" value="email" style="text;html=1;strokeColor=none;fillColor=none;align=center;verticalAlign=middle;whiteSpace=wrap;rounded=0;" vertex="1" parent="aQOUqq8OAmi28eRQVCnU-120">
          <mxGeometry x="20" width="40" height="20" as="geometry"/>
        </mxCell>
        <mxCell id="aQOUqq8OAmi28eRQVCnU-123" value="" style="group" vertex="1" connectable="0" parent="WIyWlLk6GJQsqaUBKTNV-1">
          <mxGeometry x="-30" y="20" width="80" height="20" as="geometry"/>
        </mxCell>
        <mxCell id="aQOUqq8OAmi28eRQVCnU-124" value="idContatto" style="text;html=1;strokeColor=none;fillColor=none;align=center;verticalAlign=middle;whiteSpace=wrap;rounded=0;portConstraint=south;snapToPoint=1;" vertex="1" parent="aQOUqq8OAmi28eRQVCnU-123">
          <mxGeometry x="20" width="40" height="20" as="geometry"/>
        </mxCell>
        <mxCell id="aQOUqq8OAmi28eRQVCnU-125" value="" style="endArrow=none;html=1;startArrow=oval;startFill=1;targetPortConstraint=east;" edge="1" parent="aQOUqq8OAmi28eRQVCnU-123">
          <mxGeometry width="50" height="50" relative="1" as="geometry">
            <mxPoint y="19.999999999999996" as="sourcePoint"/>
            <mxPoint x="80" y="19.999999999999996" as="targetPoint"/>
          </mxGeometry>
        </mxCell>
        <mxCell id="aQOUqq8OAmi28eRQVCnU-126" value="" style="group;rotation=90;" vertex="1" connectable="0" parent="WIyWlLk6GJQsqaUBKTNV-1">
          <mxGeometry x="70" y="-20" width="80" height="20" as="geometry"/>
        </mxCell>
        <mxCell id="aQOUqq8OAmi28eRQVCnU-127" value="" style="endArrow=none;html=1;startArrow=oval;startFill=0;" edge="1" parent="aQOUqq8OAmi28eRQVCnU-126">
          <mxGeometry width="50" height="50" relative="1" as="geometry">
            <mxPoint x="31" y="-40" as="sourcePoint"/>
            <mxPoint x="31" y="39" as="targetPoint"/>
          </mxGeometry>
        </mxCell>
        <mxCell id="aQOUqq8OAmi28eRQVCnU-128" value="cognome" style="text;html=1;strokeColor=none;fillColor=none;align=center;verticalAlign=middle;whiteSpace=wrap;rounded=0;rotation=0;direction=east;flipH=0;" vertex="1" parent="WIyWlLk6GJQsqaUBKTNV-1">
          <mxGeometry x="80" y="-90" width="40" height="20" as="geometry"/>
        </mxCell>
        <mxCell id="aQOUqq8OAmi28eRQVCnU-129" value="" style="group" vertex="1" connectable="0" parent="WIyWlLk6GJQsqaUBKTNV-1">
          <mxGeometry x="30" y="-90" width="40" height="110" as="geometry"/>
        </mxCell>
        <mxCell id="aQOUqq8OAmi28eRQVCnU-130" value="" style="group;rotation=90;" vertex="1" connectable="0" parent="aQOUqq8OAmi28eRQVCnU-129">
          <mxGeometry x="-10" y="60" width="80" height="20" as="geometry"/>
        </mxCell>
        <mxCell id="aQOUqq8OAmi28eRQVCnU-131" value="" style="endArrow=none;html=1;startArrow=oval;startFill=0;" edge="1" parent="aQOUqq8OAmi28eRQVCnU-130">
          <mxGeometry width="50" height="50" relative="1" as="geometry">
            <mxPoint x="31" y="-30" as="sourcePoint"/>
            <mxPoint x="31" y="50" as="targetPoint"/>
          </mxGeometry>
        </mxCell>
        <mxCell id="aQOUqq8OAmi28eRQVCnU-132" value="nome" style="text;html=1;strokeColor=none;fillColor=none;align=center;verticalAlign=middle;whiteSpace=wrap;rounded=0;rotation=0;direction=east;flipH=0;" vertex="1" parent="aQOUqq8OAmi28eRQVCnU-129">
          <mxGeometry width="40" height="20" as="geometry"/>
        </mxCell>
        <mxCell id="aQOUqq8OAmi28eRQVCnU-133" value="" style="group;rotation=90;" vertex="1" connectable="0" parent="WIyWlLk6GJQsqaUBKTNV-1">
          <mxGeometry x="135" y="-30" width="60" height="20" as="geometry"/>
        </mxCell>
        <mxCell id="aQOUqq8OAmi28eRQVCnU-134" value="" style="endArrow=none;html=1;startArrow=oval;startFill=0;" edge="1" parent="aQOUqq8OAmi28eRQVCnU-133">
          <mxGeometry width="50" height="50" relative="1" as="geometry">
            <mxPoint x="23.25" y="-30" as="sourcePoint"/>
            <mxPoint x="23.25" y="50" as="targetPoint"/>
          </mxGeometry>
        </mxCell>
        <mxCell id="aQOUqq8OAmi28eRQVCnU-135" value="datanascita" style="text;html=1;strokeColor=none;fillColor=none;align=center;verticalAlign=middle;whiteSpace=wrap;rounded=0;rotation=0;direction=east;flipH=0;" vertex="1" parent="WIyWlLk6GJQsqaUBKTNV-1">
          <mxGeometry x="150" y="-90" width="30" height="20" as="geometry"/>
        </mxCell>
        <mxCell id="aQOUqq8OAmi28eRQVCnU-136" value="" style="group" vertex="1" connectable="0" parent="WIyWlLk6GJQsqaUBKTNV-1">
          <mxGeometry x="180" y="-90" width="56.25" height="110" as="geometry"/>
        </mxCell>
        <mxCell id="aQOUqq8OAmi28eRQVCnU-137" value="" style="group;rotation=90;" vertex="1" connectable="0" parent="aQOUqq8OAmi28eRQVCnU-136">
          <mxGeometry x="-11.25" y="63.75" width="67.5" height="20" as="geometry"/>
        </mxCell>
        <mxCell id="aQOUqq8OAmi28eRQVCnU-138" value="" style="endArrow=none;html=1;startArrow=oval;startFill=0;" edge="1" parent="aQOUqq8OAmi28eRQVCnU-137">
          <mxGeometry width="50" height="50" relative="1" as="geometry">
            <mxPoint x="61.25" y="-23.75" as="sourcePoint"/>
            <mxPoint x="38.0053125" y="46" as="targetPoint"/>
          </mxGeometry>
        </mxCell>
        <mxCell id="aQOUqq8OAmi28eRQVCnU-139" value="cellulare" style="text;html=1;strokeColor=none;fillColor=none;align=center;verticalAlign=middle;whiteSpace=wrap;rounded=0;rotation=0;direction=east;flipH=0;" vertex="1" parent="aQOUqq8OAmi28eRQVCnU-136">
          <mxGeometry x="40" y="10" width="30" height="20" as="geometry"/>
        </mxCell>
        <mxCell id="aQOUqq8OAmi28eRQVCnU-140" value="" style="group;flipH=0;flipV=0;rotation=0;" vertex="1" connectable="0" parent="WIyWlLk6GJQsqaUBKTNV-1">
          <mxGeometry x="610" y="20" width="80" height="20" as="geometry"/>
        </mxCell>
        <mxCell id="aQOUqq8OAmi28eRQVCnU-141" value="" style="endArrow=none;html=1;startArrow=oval;startFill=1;targetPortConstraint=east;" edge="1" parent="aQOUqq8OAmi28eRQVCnU-140">
          <mxGeometry width="50" height="50" relative="1" as="geometry">
            <mxPoint x="80" y="20" as="sourcePoint"/>
            <mxPoint y="20" as="targetPoint"/>
          </mxGeometry>
        </mxCell>
        <mxCell id="aQOUqq8OAmi28eRQVCnU-142" value="idAgenda" style="text;html=1;strokeColor=none;fillColor=none;align=center;verticalAlign=middle;whiteSpace=wrap;rounded=0;portConstraint=south;snapToPoint=1;" vertex="1" parent="aQOUqq8OAmi28eRQVCnU-140">
          <mxGeometry x="20" width="40" height="20" as="geometry"/>
        </mxCell>
        <mxCell id="aQOUqq8OAmi28eRQVCnU-143" value="" style="endArrow=none;html=1;rounded=0;exitX=1;exitY=0.5;exitDx=0;exitDy=0;" edge="1" parent="WIyWlLk6GJQsqaUBKTNV-1" source="aQOUqq8OAmi28eRQVCnU-102" target="aQOUqq8OAmi28eRQVCnU-145">
          <mxGeometry relative="1" as="geometry">
            <mxPoint x="610" y="380" as="sourcePoint"/>
            <mxPoint x="689.9999999999995" y="380" as="targetPoint"/>
          </mxGeometry>
        </mxCell>
        <mxCell id="aQOUqq8OAmi28eRQVCnU-144" value="(1,n)" style="resizable=0;html=1;align=center;verticalAlign=bottom;fontSize=18;" connectable="0" vertex="1" parent="aQOUqq8OAmi28eRQVCnU-143">
          <mxGeometry x="-1" relative="1" as="geometry">
            <mxPoint x="40" as="offset"/>
          </mxGeometry>
        </mxCell>
        <mxCell id="aQOUqq8OAmi28eRQVCnU-145" value="EDP" style="rhombus;whiteSpace=wrap;html=1;" vertex="1" parent="WIyWlLk6GJQsqaUBKTNV-1">
          <mxGeometry x="720" y="340" width="80" height="80" as="geometry"/>
        </mxCell>
        <mxCell id="aQOUqq8OAmi28eRQVCnU-146" value="" style="endArrow=none;html=1;rounded=0;entryX=0;entryY=0.5;entryDx=0;entryDy=0;" edge="1" parent="WIyWlLk6GJQsqaUBKTNV-1" source="aQOUqq8OAmi28eRQVCnU-145" target="aQOUqq8OAmi28eRQVCnU-148">
          <mxGeometry relative="1" as="geometry">
            <mxPoint x="800" y="380" as="sourcePoint"/>
            <mxPoint x="849.9999999999995" y="380" as="targetPoint"/>
          </mxGeometry>
        </mxCell>
        <mxCell id="aQOUqq8OAmi28eRQVCnU-147" value="(0,n)" style="resizable=0;html=1;align=center;verticalAlign=bottom;fontSize=18;" connectable="0" vertex="1" parent="aQOUqq8OAmi28eRQVCnU-146">
          <mxGeometry x="-1" relative="1" as="geometry">
            <mxPoint x="40" as="offset"/>
          </mxGeometry>
        </mxCell>
        <mxCell id="aQOUqq8OAmi28eRQVCnU-148" value="DATAORA" style="rounded=0;whiteSpace=wrap;html=1;" vertex="1" parent="WIyWlLk6GJQsqaUBKTNV-1">
          <mxGeometry x="880" y="340" width="160" height="80" as="geometry"/>
        </mxCell>
        <mxCell id="aQOUqq8OAmi28eRQVCnU-149" value="" style="group" vertex="1" connectable="0" parent="WIyWlLk6GJQsqaUBKTNV-1">
          <mxGeometry x="610" y="60" width="80" height="20" as="geometry"/>
        </mxCell>
        <mxCell id="aQOUqq8OAmi28eRQVCnU-150" value="" style="endArrow=none;html=1;startArrow=oval;startFill=0;" edge="1" parent="aQOUqq8OAmi28eRQVCnU-149">
          <mxGeometry width="50" height="50" relative="1" as="geometry">
            <mxPoint x="80" y="19.409999999999968" as="sourcePoint"/>
            <mxPoint y="19.409999999999968" as="targetPoint"/>
          </mxGeometry>
        </mxCell>
        <mxCell id="aQOUqq8OAmi28eRQVCnU-151" value="Nome" style="text;html=1;strokeColor=none;fillColor=none;align=center;verticalAlign=middle;whiteSpace=wrap;rounded=0;" vertex="1" parent="aQOUqq8OAmi28eRQVCnU-149">
          <mxGeometry x="20" width="40" height="20" as="geometry"/>
        </mxCell>
        <mxCell id="aQOUqq8OAmi28eRQVCnU-152" value="" style="group" vertex="1" connectable="0" parent="WIyWlLk6GJQsqaUBKTNV-1">
          <mxGeometry x="410" y="470" width="80" height="20" as="geometry"/>
        </mxCell>
        <mxCell id="aQOUqq8OAmi28eRQVCnU-153" value="Nome" style="text;html=1;strokeColor=none;fillColor=none;align=center;verticalAlign=middle;whiteSpace=wrap;rounded=0;" vertex="1" parent="aQOUqq8OAmi28eRQVCnU-152">
          <mxGeometry x="40" width="40" height="20" as="geometry"/>
        </mxCell>
        <mxCell id="aQOUqq8OAmi28eRQVCnU-154" value="" style="endArrow=none;html=1;startArrow=oval;startFill=0;entryX=0.144;entryY=1.013;entryDx=0;entryDy=0;entryPerimeter=0;" edge="1" parent="WIyWlLk6GJQsqaUBKTNV-1" target="aQOUqq8OAmi28eRQVCnU-102">
          <mxGeometry width="50" height="50" relative="1" as="geometry">
            <mxPoint x="473" y="460" as="sourcePoint"/>
            <mxPoint x="459.5" y="409.99999999999994" as="targetPoint"/>
            <Array as="points"/>
          </mxGeometry>
        </mxCell>
        <mxCell id="aQOUqq8OAmi28eRQVCnU-155" value="idEvento" style="text;html=1;strokeColor=none;fillColor=none;align=center;verticalAlign=middle;whiteSpace=wrap;rounded=0;portConstraint=south;snapToPoint=1;" vertex="1" parent="WIyWlLk6GJQsqaUBKTNV-1">
          <mxGeometry x="370" y="450" width="40" height="20" as="geometry"/>
        </mxCell>
        <mxCell id="aQOUqq8OAmi28eRQVCnU-156" value="" style="endArrow=none;html=1;startArrow=oval;startFill=1;targetPortConstraint=east;entryX=-0.012;entryY=0.925;entryDx=0;entryDy=0;entryPerimeter=0;" edge="1" parent="WIyWlLk6GJQsqaUBKTNV-1" target="aQOUqq8OAmi28eRQVCnU-102">
          <mxGeometry width="50" height="50" relative="1" as="geometry">
            <mxPoint x="400" y="440" as="sourcePoint"/>
            <mxPoint x="440" y="270" as="targetPoint"/>
            <Array as="points"/>
          </mxGeometry>
        </mxCell>
        <mxCell id="aQOUqq8OAmi28eRQVCnU-157" value="Descrizione" style="text;html=1;strokeColor=none;fillColor=none;align=center;verticalAlign=middle;whiteSpace=wrap;rounded=0;" vertex="1" parent="WIyWlLk6GJQsqaUBKTNV-1">
          <mxGeometry x="580" y="480" width="40" height="20" as="geometry"/>
        </mxCell>
        <mxCell id="aQOUqq8OAmi28eRQVCnU-158" value="" style="endArrow=none;html=1;startArrow=oval;startFill=0;entryX=0.913;entryY=1.013;entryDx=0;entryDy=0;entryPerimeter=0;" edge="1" parent="WIyWlLk6GJQsqaUBKTNV-1" target="aQOUqq8OAmi28eRQVCnU-102">
          <mxGeometry width="50" height="50" relative="1" as="geometry">
            <mxPoint x="596" y="471" as="sourcePoint"/>
            <mxPoint x="604" y="425" as="targetPoint"/>
          </mxGeometry>
        </mxCell>
        <mxCell id="aQOUqq8OAmi28eRQVCnU-159" value="Luogo" style="text;html=1;strokeColor=none;fillColor=none;align=center;verticalAlign=middle;whiteSpace=wrap;rounded=0;" vertex="1" parent="WIyWlLk6GJQsqaUBKTNV-1">
          <mxGeometry x="660" y="450" width="40" height="20" as="geometry"/>
        </mxCell>
        <mxCell id="aQOUqq8OAmi28eRQVCnU-160" value="" style="endArrow=none;html=1;startArrow=oval;startFill=0;entryX=1;entryY=1;entryDx=0;entryDy=0;" edge="1" parent="WIyWlLk6GJQsqaUBKTNV-1" target="aQOUqq8OAmi28eRQVCnU-102">
          <mxGeometry width="50" height="50" relative="1" as="geometry">
            <mxPoint x="659.9999999999995" y="450" as="sourcePoint"/>
            <mxPoint x="610" y="420" as="targetPoint"/>
          </mxGeometry>
        </mxCell>
        <mxCell id="aQOUqq8OAmi28eRQVCnU-161" value="EV_PR" style="rhombus;whiteSpace=wrap;html=1;" vertex="1" parent="WIyWlLk6GJQsqaUBKTNV-1">
          <mxGeometry x="-20" y="620" width="80" height="80" as="geometry"/>
        </mxCell>
        <mxCell id="aQOUqq8OAmi28eRQVCnU-162" value="" style="endArrow=none;html=1;entryX=0.5;entryY=0;entryDx=0;entryDy=0;exitX=0.5;exitY=1;exitDx=0;exitDy=0;" edge="1" parent="WIyWlLk6GJQsqaUBKTNV-1" target="aQOUqq8OAmi28eRQVCnU-161">
          <mxGeometry width="50" height="50" relative="1" as="geometry">
            <mxPoint x="20" y="540" as="sourcePoint"/>
            <mxPoint x="-40" y="680" as="targetPoint"/>
          </mxGeometry>
        </mxCell>
        <mxCell id="aQOUqq8OAmi28eRQVCnU-163" value="PROMEMORIA" style="rounded=0;whiteSpace=wrap;html=1;" vertex="1" parent="WIyWlLk6GJQsqaUBKTNV-1">
          <mxGeometry x="680" y="560" width="160" height="80" as="geometry"/>
        </mxCell>
        <mxCell id="aQOUqq8OAmi28eRQVCnU-164" value="" style="endArrow=none;html=1;exitX=0.5;exitY=1;exitDx=0;exitDy=0;entryX=0.5;entryY=0;entryDx=0;entryDy=0;" edge="1" parent="WIyWlLk6GJQsqaUBKTNV-1" source="aQOUqq8OAmi28eRQVCnU-161">
          <mxGeometry width="50" height="50" relative="1" as="geometry">
            <mxPoint x="19.5" y="740" as="sourcePoint"/>
            <mxPoint x="20" y="780" as="targetPoint"/>
          </mxGeometry>
        </mxCell>
        <mxCell id="aQOUqq8OAmi28eRQVCnU-165" value="(1,1)" style="resizable=0;html=1;align=center;verticalAlign=bottom;fontSize=18;" connectable="0" vertex="1" parent="WIyWlLk6GJQsqaUBKTNV-1">
          <mxGeometry x="40" y="720" as="geometry">
            <mxPoint x="20" y="50" as="offset"/>
          </mxGeometry>
        </mxCell>
        <mxCell id="aQOUqq8OAmi28eRQVCnU-166" value="(0,n)" style="resizable=0;html=1;align=center;verticalAlign=bottom;fontSize=18;" connectable="0" vertex="1" parent="WIyWlLk6GJQsqaUBKTNV-1">
          <mxGeometry x="530" y="420" as="geometry">
            <mxPoint x="20" y="40" as="offset"/>
          </mxGeometry>
        </mxCell>
        <mxCell id="aQOUqq8OAmi28eRQVCnU-167" value="" style="group" vertex="1" connectable="0" parent="WIyWlLk6GJQsqaUBKTNV-1">
          <mxGeometry x="898" y="260" width="80" height="20" as="geometry"/>
        </mxCell>
        <mxCell id="aQOUqq8OAmi28eRQVCnU-168" value="" style="endArrow=none;html=1;startArrow=oval;startFill=0;targetPortConstraint=east;" edge="1" parent="WIyWlLk6GJQsqaUBKTNV-1" target="aQOUqq8OAmi28eRQVCnU-148">
          <mxGeometry width="50" height="50" relative="1" as="geometry">
            <mxPoint x="960" y="280" as="sourcePoint"/>
            <mxPoint x="950" y="280" as="targetPoint"/>
          </mxGeometry>
        </mxCell>
        <mxCell id="aQOUqq8OAmi28eRQVCnU-169" value="Data" style="text;html=1;strokeColor=none;fillColor=none;align=center;verticalAlign=middle;whiteSpace=wrap;rounded=0;portConstraint=south;snapToPoint=1;" vertex="1" parent="WIyWlLk6GJQsqaUBKTNV-1">
          <mxGeometry x="938" y="250" width="40" height="20" as="geometry"/>
        </mxCell>
        <mxCell id="aQOUqq8OAmi28eRQVCnU-170" value="" style="group" vertex="1" connectable="0" parent="WIyWlLk6GJQsqaUBKTNV-1">
          <mxGeometry x="600" y="560" width="80" height="20" as="geometry"/>
        </mxCell>
        <mxCell id="aQOUqq8OAmi28eRQVCnU-171" value="id" style="text;html=1;strokeColor=none;fillColor=none;align=center;verticalAlign=middle;whiteSpace=wrap;rounded=0;portConstraint=south;snapToPoint=1;" vertex="1" parent="aQOUqq8OAmi28eRQVCnU-170">
          <mxGeometry x="20" width="40" height="20" as="geometry"/>
        </mxCell>
        <mxCell id="aQOUqq8OAmi28eRQVCnU-172" value="" style="endArrow=none;html=1;startArrow=oval;startFill=1;targetPortConstraint=east;" edge="1" parent="aQOUqq8OAmi28eRQVCnU-170">
          <mxGeometry width="50" height="50" relative="1" as="geometry">
            <mxPoint y="19.999999999999996" as="sourcePoint"/>
            <mxPoint x="80" y="19.999999999999996" as="targetPoint"/>
          </mxGeometry>
        </mxCell>
        <mxCell id="aQOUqq8OAmi28eRQVCnU-173" value="Orario" style="text;html=1;align=center;verticalAlign=middle;resizable=0;points=[];autosize=1;" vertex="1" parent="WIyWlLk6GJQsqaUBKTNV-1">
          <mxGeometry x="615" y="587" width="50" height="20" as="geometry"/>
        </mxCell>
        <mxCell id="aQOUqq8OAmi28eRQVCnU-174" value="" style="endArrow=none;html=1;startArrow=oval;startFill=0;entryX=1;entryY=0.75;entryDx=0;entryDy=0;" edge="1" parent="WIyWlLk6GJQsqaUBKTNV-1">
          <mxGeometry width="50" height="50" relative="1" as="geometry">
            <mxPoint x="600" y="633" as="sourcePoint"/>
            <mxPoint x="680" y="633" as="targetPoint"/>
          </mxGeometry>
        </mxCell>
        <mxCell id="aQOUqq8OAmi28eRQVCnU-175" value="Testo" style="text;html=1;strokeColor=none;fillColor=none;align=center;verticalAlign=middle;whiteSpace=wrap;rounded=0;" vertex="1" parent="WIyWlLk6GJQsqaUBKTNV-1">
          <mxGeometry x="620" y="614" width="40" height="20" as="geometry"/>
        </mxCell>
        <mxCell id="aQOUqq8OAmi28eRQVCnU-176" value="" style="group" vertex="1" connectable="0" parent="WIyWlLk6GJQsqaUBKTNV-1">
          <mxGeometry x="410" y="320" width="80" height="20" as="geometry"/>
        </mxCell>
        <mxCell id="aQOUqq8OAmi28eRQVCnU-177" value="" style="endArrow=none;html=1;startArrow=oval;startFill=0;" edge="1" parent="aQOUqq8OAmi28eRQVCnU-176" target="aQOUqq8OAmi28eRQVCnU-102">
          <mxGeometry width="50" height="50" relative="1" as="geometry">
            <mxPoint x="10" y="-20" as="sourcePoint"/>
            <mxPoint x="80" y="19" as="targetPoint"/>
          </mxGeometry>
        </mxCell>
        <mxCell id="aQOUqq8OAmi28eRQVCnU-178" value="Immagine" style="text;html=1;strokeColor=none;fillColor=none;align=center;verticalAlign=middle;whiteSpace=wrap;rounded=0;" vertex="1" parent="WIyWlLk6GJQsqaUBKTNV-1">
          <mxGeometry x="395" y="270" width="40" height="20" as="geometry"/>
        </mxCell>
        <mxCell id="aQOUqq8OAmi28eRQVCnU-179" value="" style="endArrow=none;html=1;startArrow=oval;startFill=0;entryX=0;entryY=0.75;entryDx=0;entryDy=0;" edge="1" parent="WIyWlLk6GJQsqaUBKTNV-1">
          <mxGeometry width="50" height="50" relative="1" as="geometry">
            <mxPoint x="601" y="606.5" as="sourcePoint"/>
            <mxPoint x="680" y="606.5" as="targetPoint"/>
          </mxGeometry>
        </mxCell>
        <mxCell id="aQOUqq8OAmi28eRQVCnU-180" value="" style="endArrow=none;html=1;startArrow=oval;startFill=0;entryX=0.5;entryY=0;entryDx=0;entryDy=0;" edge="1" parent="WIyWlLk6GJQsqaUBKTNV-1">
          <mxGeometry width="50" height="50" relative="1" as="geometry">
            <mxPoint x="489" y="-30" as="sourcePoint"/>
            <mxPoint x="489" y="20" as="targetPoint"/>
          </mxGeometry>
        </mxCell>
        <mxCell id="aQOUqq8OAmi28eRQVCnU-181" value="Colore" style="text;html=1;strokeColor=none;fillColor=none;align=center;verticalAlign=middle;whiteSpace=wrap;rounded=0;" vertex="1" parent="WIyWlLk6GJQsqaUBKTNV-1">
          <mxGeometry x="469" y="-60" width="40" height="20" as="geometry"/>
        </mxCell>
        <mxCell id="aQOUqq8OAmi28eRQVCnU-182" value="" style="endArrow=none;html=1;startArrow=oval;startFill=0;entryX=0.681;entryY=0.013;entryDx=0;entryDy=0;entryPerimeter=0;" edge="1" parent="WIyWlLk6GJQsqaUBKTNV-1">
          <mxGeometry width="50" height="50" relative="1" as="geometry">
            <mxPoint x="556" y="-30" as="sourcePoint"/>
            <mxPoint x="555.96" y="21.039999999999964" as="targetPoint"/>
          </mxGeometry>
        </mxCell>
        <mxCell id="aQOUqq8OAmi28eRQVCnU-183" value="Lav_Pers" style="text;html=1;strokeColor=none;fillColor=none;align=center;verticalAlign=middle;whiteSpace=wrap;rounded=0;" vertex="1" parent="WIyWlLk6GJQsqaUBKTNV-1">
          <mxGeometry x="540" y="-60" width="40" height="20" as="geometry"/>
        </mxCell>
        <mxCell id="aQOUqq8OAmi28eRQVCnU-184" value="id" style="text;html=1;strokeColor=none;fillColor=none;align=center;verticalAlign=middle;whiteSpace=wrap;rounded=0;portConstraint=south;snapToPoint=1;" vertex="1" parent="WIyWlLk6GJQsqaUBKTNV-1">
          <mxGeometry x="888" y="250" width="40" height="20" as="geometry"/>
        </mxCell>
        <mxCell id="aQOUqq8OAmi28eRQVCnU-185" value="" style="endArrow=none;html=1;startArrow=oval;startFill=1;targetPortConstraint=east;entryX=0.188;entryY=0.013;entryDx=0;entryDy=0;entryPerimeter=0;" edge="1" parent="WIyWlLk6GJQsqaUBKTNV-1" target="aQOUqq8OAmi28eRQVCnU-148">
          <mxGeometry width="50" height="50" relative="1" as="geometry">
            <mxPoint x="910" y="280" as="sourcePoint"/>
            <mxPoint x="890" y="330" as="targetPoint"/>
          </mxGeometry>
        </mxCell>
        <mxCell id="aQOUqq8OAmi28eRQVCnU-186" value="" style="endArrow=none;html=1;startArrow=oval;startFill=0;entryX=0.813;entryY=-0.025;entryDx=0;entryDy=0;entryPerimeter=0;" edge="1" parent="WIyWlLk6GJQsqaUBKTNV-1" target="aQOUqq8OAmi28eRQVCnU-148">
          <mxGeometry width="50" height="50" relative="1" as="geometry">
            <mxPoint x="1010" y="280" as="sourcePoint"/>
            <mxPoint x="1060" y="309.40999999999985" as="targetPoint"/>
          </mxGeometry>
        </mxCell>
        <mxCell id="aQOUqq8OAmi28eRQVCnU-187" value="Ora" style="text;html=1;strokeColor=none;fillColor=none;align=center;verticalAlign=middle;whiteSpace=wrap;rounded=0;" vertex="1" parent="WIyWlLk6GJQsqaUBKTNV-1">
          <mxGeometry x="988" y="250" width="40" height="20" as="geometry"/>
        </mxCell>
        <mxCell id="aQOUqq8OAmi28eRQVCnU-190" value="" style="endArrow=none;html=1;rounded=0;exitX=0.5;exitY=1;exitDx=0;exitDy=0;entryX=0.5;entryY=0;entryDx=0;entryDy=0;" edge="1" parent="WIyWlLk6GJQsqaUBKTNV-1" source="aQOUqq8OAmi28eRQVCnU-145" target="aQOUqq8OAmi28eRQVCnU-163">
          <mxGeometry relative="1" as="geometry">
            <mxPoint x="700" y="489.5" as="sourcePoint"/>
            <mxPoint x="810" y="489.5" as="targetPoint"/>
          </mxGeometry>
        </mxCell>
        <mxCell id="aQOUqq8OAmi28eRQVCnU-191" value="(1,n)" style="resizable=0;html=1;align=center;verticalAlign=bottom;fontSize=18;" connectable="0" vertex="1" parent="aQOUqq8OAmi28eRQVCnU-190">
          <mxGeometry x="-1" relative="1" as="geometry">
            <mxPoint x="20" y="140" as="offset"/>
          </mxGeometry>
        </mxCell>
      </root>
    </mxGraphModel>
  </diagram>
</mxfile>
